<?xml version="1.0" encoding="UTF-8"?>
<svg version="1.1" xmlns="http://www.w3.org/2000/svg" width="512" height="512">
<path d="M0 0 C0.92220337 0.00182281 1.84440674 0.00364563 2.79455566 0.00552368 C16.841657 0.05219735 30.55997339 0.56067231 44.375 3.3125 C45.27976074 3.48942383 46.18452148 3.66634766 47.11669922 3.84863281 C53.58657431 5.14731809 59.98813627 6.65502172 66.375 8.3125 C67.62095947 8.63492676 67.62095947 8.63492676 68.89208984 8.96386719 C103.17583645 18.0563653 134.94322134 34.94908514 162.375 57.3125 C162.92575195 57.76028809 163.47650391 58.20807617 164.04394531 58.66943359 C177.40993434 69.62497503 189.7986461 81.61848954 200.375 95.3125 C201.53515625 96.74722656 201.53515625 96.74722656 202.71875 98.2109375 C238.24029381 142.83768716 256.92122501 199.14424287 256.6875 255.9375 C256.68476578 257.32080505 256.68476578 257.32080505 256.68197632 258.73205566 C256.63530265 272.779157 256.12682769 286.49747339 253.375 300.3125 C253.19807617 301.21726074 253.02115234 302.12202148 252.83886719 303.05419922 C251.54018191 309.52407431 250.03247828 315.92563627 248.375 322.3125 C248.16004883 323.14313965 247.94509766 323.9737793 247.72363281 324.82958984 C238.6311347 359.11333645 221.73841486 390.88072134 199.375 418.3125 C198.92721191 418.86325195 198.47942383 419.41400391 198.01806641 419.98144531 C187.06252497 433.34743434 175.06901046 445.7361461 161.375 456.3125 C159.94027344 457.47265625 159.94027344 457.47265625 158.4765625 458.65625 C113.84981284 494.17779381 57.54325713 512.85872501 0.75 512.625 C-0.17220337 512.62317719 -1.09440674 512.62135437 -2.04455566 512.61947632 C-16.091657 512.57280265 -29.80997339 512.06432769 -43.625 509.3125 C-44.52976074 509.13557617 -45.43452148 508.95865234 -46.36669922 508.77636719 C-52.83657431 507.47768191 -59.23813627 505.96997828 -65.625 504.3125 C-66.45563965 504.09754883 -67.2862793 503.88259766 -68.14208984 503.66113281 C-102.42583645 494.5686347 -134.19322134 477.67591486 -161.625 455.3125 C-162.17575195 454.86471191 -162.72650391 454.41692383 -163.29394531 453.95556641 C-176.65993434 443.00002497 -189.0486461 431.00651046 -199.625 417.3125 C-200.78515625 415.87777344 -200.78515625 415.87777344 -201.96875 414.4140625 C-237.49029381 369.78731284 -256.17122501 313.48075713 -255.9375 256.6875 C-255.93567719 255.76529663 -255.93385437 254.84309326 -255.93197632 253.89294434 C-255.88530265 239.845843 -255.37682769 226.12752661 -252.625 212.3125 C-252.44807617 211.40773926 -252.27115234 210.50297852 -252.08886719 209.57080078 C-250.79018191 203.10092569 -249.28247828 196.69936373 -247.625 190.3125 C-247.41004883 189.48186035 -247.19509766 188.6512207 -246.97363281 187.79541016 C-237.8811347 153.51166355 -220.98841486 121.74427866 -198.625 94.3125 C-198.17721191 93.76174805 -197.72942383 93.21099609 -197.26806641 92.64355469 C-186.31252497 79.27756566 -174.31901046 66.8888539 -160.625 56.3125 C-159.19027344 55.15234375 -159.19027344 55.15234375 -157.7265625 53.96875 C-113.09981284 18.44720619 -56.79325713 -0.23372501 0 0 Z " fill="#EB4134" transform="translate(255.625,-0.3125)"/>
<path d="M0 0 C9.57 0 19.14 0 29 0 C29 9.9 29 19.8 29 30 C38.9 30 48.8 30 59 30 C59 20.1 59 10.2 59 0 C68.9 0 78.8 0 89 0 C89 9.9 89 19.8 89 30 C98.9 30 108.8 30 119 30 C119 20.1 119 10.2 119 0 C128.9 0 138.8 0 149 0 C149 9.9 149 19.8 149 30 C158.9 30 168.8 30 179 30 C179 20.1 179 10.2 179 0 C188.57 0 198.14 0 208 0 C208 39.27 208 78.54 208 119 C217.9 119 227.8 119 238 119 C238 109.1 238 99.2 238 89 C247.9 89 257.8 89 268 89 C268 148.07 268 207.14 268 268 C223.78 268 179.56 268 134 268 C133.67 251.17 133.34 234.34 133 217 C127.28554424 205.57108848 124.28743135 199.87205959 112.8125 195.69140625 C104.97241026 193.76405086 96.08231844 193.80195197 89 198 C81.30034793 203.01577335 79.3560531 208.2878938 75 217 C74.67 233.83 74.34 250.66 74 268 C29.78 268 -14.44 268 -60 268 C-60 208.93 -60 149.86 -60 89 C-50.1 89 -40.2 89 -30 89 C-30 98.9 -30 108.8 -30 119 C-20.1 119 -10.2 119 0 119 C0 79.73 0 40.46 0 0 Z " fill="#FEFEFE" transform="translate(152,122)"/>
<path d="M0 0 C9.9 0 19.8 0 30 0 C30 14.85 30 29.7 30 45 C20.1 45 10.2 45 0 45 C0 30.15 0 15.3 0 0 Z " fill="#C4372D" transform="translate(271,211)"/>
<path d="M0 0 C9.9 0 19.8 0 30 0 C30 14.85 30 29.7 30 45 C20.1 45 10.2 45 0 45 C0 30.15 0 15.3 0 0 Z " fill="#C4372D" transform="translate(211,211)"/>
<path d="M0 0 C6.94721841 4.10832185 12.95969252 9.48280995 15.3515625 17.390625 C15.6015625 20.890625 15.6015625 20.890625 15.3515625 23.390625 C15.06667969 22.81054688 14.78179687 22.23046875 14.48828125 21.6328125 C10.00579498 12.79106981 5.28452019 6.71127692 -4.1484375 3.015625 C-12.13391937 0.41898532 -18.99132903 0.98213158 -26.6484375 4.390625 C-29.6320632 6.44901485 -32.1427803 8.77893776 -34.6484375 11.390625 C-35.15503906 11.91140625 -35.66164062 12.4321875 -36.18359375 12.96875 C-42.16959742 19.60047419 -41.96150059 26.6349391 -42.02734375 35.09765625 C-42.04433823 36.21879318 -42.0613327 37.33993011 -42.07884216 38.49504089 C-42.13184386 42.06434558 -42.17223541 45.63363885 -42.2109375 49.203125 C-42.25482229 52.79040711 -42.30143361 56.37759808 -42.35374451 59.96476746 C-42.38578349 62.19493245 -42.41264772 64.42517865 -42.43397522 66.6554718 C-42.45420998 68.1578968 -42.45420998 68.1578968 -42.47485352 69.69067383 C-42.48436539 70.57636551 -42.49387726 71.46205719 -42.50367737 72.37458801 C-42.6484375 74.390625 -42.6484375 74.390625 -43.6484375 75.390625 C-45.29334299 75.48671163 -46.94239441 75.51250287 -48.59010315 75.51087952 C-49.66007538 75.51225418 -50.73004761 75.51362885 -51.83244324 75.51504517 C-53.01639175 75.51144989 -54.20034027 75.50785461 -55.42016602 75.50415039 C-57.27844025 75.50436943 -57.27844025 75.50436943 -59.17425537 75.5045929 C-62.58113583 75.50401392 -65.98795634 75.49898459 -69.39482617 75.49201894 C-72.95160576 75.48578493 -76.50838608 75.48518156 -80.06517029 75.48399353 C-86.80480332 75.48088035 -93.54442021 75.47266715 -100.28404611 75.46264404 C-107.95502148 75.45148248 -115.62599761 75.44597235 -123.29697907 75.44094861 C-139.08080791 75.43048452 -154.86462063 75.41288535 -170.6484375 75.390625 C-170.9784375 76.380625 -171.3084375 77.370625 -171.6484375 78.390625 C-173.6284375 77.400625 -175.6084375 76.410625 -177.6484375 75.390625 C-177.6484375 74.070625 -177.6484375 72.750625 -177.6484375 71.390625 C-133.4284375 71.390625 -89.2084375 71.390625 -43.6484375 71.390625 C-43.6484375 54.560625 -43.6484375 37.730625 -43.6484375 20.390625 C-34.70728648 2.50832297 -20.85736683 -9.6473814 0 0 Z " fill="#B25B55" transform="translate(269.6484375,318.609375)"/>
<path d="M0 0 C3.31460693 1.10486898 3.96976106 1.87623086 6.125 4.5 C8.87716317 7.73715158 11.70962268 10.84315785 14.6875 13.875 C15.41324219 14.61492187 16.13898438 15.35484375 16.88671875 16.1171875 C19.13459287 18.28486312 19.13459287 18.28486312 23 20 C24.98 22.64 26.96 25.28 29 28 C19.43 28 9.86 28 0 28 C0 18.76 0 9.52 0 0 Z " fill="#CB382D" transform="translate(241,123)"/>
<path d="M0 0 C0.33 0.66 0.66 1.32 1 2 C1.91604004 2.45693237 1.91604004 2.45693237 2.85058594 2.9230957 C5.18562215 4.09300083 6.57728248 5.36226395 8.390625 7.23046875 C9.01437012 7.86573486 9.63811523 8.50100098 10.28076172 9.15551758 C10.93061035 9.82607178 11.58045898 10.49662598 12.25 11.1875 C16.90531843 15.928903 21.54716196 20.56811408 26.6796875 24.80078125 C28 26 28 26 29 28 C19.43 28 9.86 28 0 28 C0 18.76 0 9.52 0 0 Z " fill="#CA372C" transform="translate(122,213)"/>
<path d="M0 0 C4.32735971 2.59641582 7.38664981 5.18131378 10.8125 8.75 C14.92739805 12.96808899 19.10250411 16.96180214 23.671875 20.6953125 C24.11015625 21.12585938 24.5484375 21.55640625 25 22 C25 22.66 25 23.32 25 24 C26.32 24.66 27.64 25.32 29 26 C29 26.33 29 26.66 29 27 C19.43 27 9.86 27 0 27 C0 18.09 0 9.18 0 0 Z " fill="#CE382D" transform="translate(301,124)"/>
<path d="M0 0 C44.22 0 88.44 0 134 0 C134 0.99 134 1.98 134 3 C92.09 3 50.18 3 7 3 C6.67 3.99 6.34 4.98 6 6 C4.02 5.01 2.04 4.02 0 3 C0 2.01 0 1.02 0 0 Z " fill="#9A2A22" transform="translate(92,391)"/>
<path d="M0 0 C44.22 0 88.44 0 134 0 C134 0.99 134 1.98 134 3 C90.11 3 46.22 3 1 3 C0.67 2.01 0.34 1.02 0 0 Z " fill="#A92E25" transform="translate(286,391)"/>
<path d="M0 0 C7.78807947 6.67549669 7.78807947 6.67549669 11.25 10.25 C13.46462497 12.53549297 15.32930508 14.21953672 18 16 C18 16.66 18 17.32 18 18 C18.763125 18.268125 19.52625 18.53625 20.3125 18.8125 C22.90483979 19.95795247 24.30075537 20.76415181 26 23 C26 23.99 26 24.98 26 26 C26.99 26.33 27.98 26.66 29 27 C19.43 27 9.86 27 0 27 C0 18.09 0 9.18 0 0 Z " fill="#C9372C" transform="translate(182,124)"/>
<path d="M0 0 C44.22 0 88.44 0 134 0 C134 0.33 134 0.66 134 1 C92.09 1 50.18 1 7 1 C6.67 1.99 6.34 2.98 6 4 C4.02 3.01 2.04 2.02 0 1 C0 0.67 0 0.34 0 0 Z " fill="#B63228" transform="translate(92,393)"/>
<path d="M0 0 C0.66 0.33 1.32 0.66 2 1 C1.505 1.433125 1.01 1.86625 0.5 2.3125 C-1.33218192 3.99740483 -1.33218192 3.99740483 -1 7 C-2.89672973 9.31577467 -4.9668698 11.40683942 -7.0546875 13.55078125 C-11.82099545 19.55173524 -11.33619502 26.43085873 -11.4140625 33.7421875 C-11.43342865 34.86569611 -11.4527948 35.98920471 -11.4727478 37.14675903 C-11.53235875 40.72276298 -11.57885548 44.29879943 -11.625 47.875 C-11.66319674 50.30470126 -11.70224946 52.73438923 -11.7421875 55.1640625 C-11.83804515 61.10925667 -11.92314658 67.05453142 -12 73 C-12.33 73 -12.66 73 -13 73 C-13.15315951 65.52956663 -13.25763633 58.05954367 -13.32958984 50.58789062 C-13.3596109 48.05062734 -13.4004411 45.51346649 -13.45263672 42.9765625 C-13.52609598 39.3122417 -13.5596055 35.64930233 -13.5859375 31.984375 C-13.61690521 30.86512634 -13.64787292 29.74587769 -13.67977905 28.5927124 C-13.68406335 18.38066837 -10.31279431 10.08043798 -3.125 2.75 C-2.09828223 1.81662021 -1.06234435 0.8926207 0 0 Z " fill="#B9473E" transform="translate(239,320)"/>
<path d="M0 0 C9.57 0 19.14 0 29 0 C29 0.66 29 1.32 29 2 C27.84213989 2.03758423 27.84213989 2.03758423 26.66088867 2.07592773 C23.16958819 2.19184007 19.67856078 2.31458824 16.1875 2.4375 C14.97255859 2.47681641 13.75761719 2.51613281 12.50585938 2.55664062 C11.34248047 2.59853516 10.17910156 2.64042969 8.98046875 2.68359375 C7.90692139 2.72025146 6.83337402 2.75690918 5.72729492 2.79467773 C2.90688447 2.89541847 2.90688447 2.89541847 0 4 C0 2.68 0 1.36 0 0 Z " fill="#962821" transform="translate(212,212)"/>
<path d="M0 0 C5.244782 1.94251185 8.03938504 6.41001663 10.8125 11 C12.0916933 14.23164624 12.24591573 16.5571798 12 20 C11.71769531 19.42121094 11.43539063 18.84242188 11.14453125 18.24609375 C8.67572255 13.401162 6.04539912 9.04539912 2.1875 5.1875 C1.465625 4.465625 0.74375 3.74375 0 3 C0 2.01 0 1.02 0 0 Z " fill="#B04139" transform="translate(273,322)"/>
<path d="M0 0 C3.16115776 1.36983503 3.9927092 1.9890638 6 5 C4.68 5 3.36 5 2 5 C1.34 4.34 0.68 3.68 0 3 C0 2.01 0 1.02 0 0 Z " fill="#A93C34" transform="translate(273,322)"/>
</svg>
